<?xml version="1.0" encoding="UTF-8" standalone="no"?>
<svg width="900" height="600" xmlns="http://www.w3.org/2000/svg">
<rect x="0" y="0" width="100" height="100" fill="red"/>
<rect x="100" y="0" width="100" height="100" fill="red"/>
<rect x="200" y="0" width="100" height="100" fill="red"/>
<rect x="300" y="0" width="100" height="100" fill="red"/>
<rect x="400" y="0" width="100" height="100" fill="red"/>
<rect x="500" y="0" width="100" height="100" fill="red"/>
<rect x="600" y="0" width="100" height="100" fill="red"/>
<rect x="700" y="0" width="100" height="100" fill="red"/>
<rect x="0" y="100" width="100" height="100" fill="red"/>
<rect x="100" y="100" width="100" height="100" fill="red"/>
<rect x="200" y="100" width="100" height="100" fill="red"/>
<rect x="300" y="100" width="100" height="100" fill="red"/>
<rect x="400" y="100" width="100" height="100" fill="red"/>
<rect x="500" y="100" width="100" height="100" fill="red"/>
<rect x="600" y="100" width="100" height="100" fill="red"/>
<rect x="700" y="100" width="100" height="100" fill="red"/>
<rect x="0" y="200" width="100" height="100" fill="white"/>
<rect x="100" y="200" width="100" height="100" fill="white"/>
<rect x="200" y="200" width="100" height="100" fill="white"/>
<rect x="300" y="200" width="100" height="100" fill="white"/>
<rect x="400" y="200" width="100" height="100" fill="white"/>
<rect x="500" y="200" width="100" height="100" fill="white"/>
<rect x="600" y="200" width="100" height="100" fill="white"/>
<rect x="700" y="200" width="100" height="100" fill="white"/>
<rect x="0" y="300" width="100" height="100" fill="white"/>
<rect x="100" y="300" width="100" height="100" fill="white"/>
<rect x="200" y="300" width="100" height="100" fill="white"/>
<rect x="300" y="300" width="100" height="100" fill="white"/>
<rect x="400" y="300" width="100" height="100" fill="white"/>
<rect x="500" y="300" width="100" height="100" fill="white"/>
<rect x="600" y="300" width="100" height="100" fill="white"/>
<rect x="700" y="300" width="100" height="100" fill="white"/>
<rect x="0" y="400" width="100" height="100" fill="green"/>
<rect x="100" y="400" width="100" height="100" fill="green"/>
<rect x="200" y="400" width="100" height="100" fill="green"/>
<rect x="300" y="400" width="100" height="100" fill="green"/>
<rect x="400" y="400" width="100" height="100" fill="green"/>
<rect x="500" y="400" width="100" height="100" fill="green"/>
<rect x="600" y="400" width="100" height="100" fill="green"/>
<rect x="700" y="400" width="100" height="100" fill="green"/>
<rect x="0" y="500" width="100" height="100" fill="green"/>
<rect x="100" y="500" width="100" height="100" fill="green"/>
<rect x="200" y="500" width="100" height="100" fill="green"/>
<rect x="300" y="500" width="100" height="100" fill="green"/>
<rect x="400" y="500" width="100" height="100" fill="green"/>
<rect x="500" y="500" width="100" height="100" fill="green"/>
<rect x="600" y="500" width="100" height="100" fill="green"/>
<rect x="700" y="500" width="100" height="100" fill="green"/>
</svg>